<svg xmlns="http://www.w3.org/2000/svg" width="32" height="28.73"><style>.st0{fill:#f95889}</style><path class="st0" d="M16.31 28.73L2.23 15.65A9.605 9.605 0 010 9.5C0 4.26 4.26 0 9.49 0c2.45 0 4.76.91 6.5 2.54A9.507 9.507 0 0122.49 0c5.24 0 9.5 4.26 9.5 9.5 0 2.24-.79 4.43-2.23 6.15l-.09.1-11 9.99-1.35-1.49 10.95-9.93a7.7 7.7 0 001.72-4.82c0-4.14-3.36-7.5-7.5-7.5-2.22 0-4.31.96-5.73 2.64l-.77.91-.76-.91C13.81 2.96 11.72 2 9.49 2c-4.13 0-7.5 3.36-7.5 7.5 0 1.73.63 3.49 1.73 4.82l13.95 12.94z"/><path class="st0" d="M19.44 8l-1.76-.96a5.47 5.47 0 013.29-2.63c1.42-.41 2.9-.24 4.19.47l-.97 1.75A3.49 3.49 0 0019.44 8M15.2 22.24L5.13 12.88A5.66 5.66 0 014 9.49c0-3.03 2.46-5.5 5.5-5.5v2C7.56 5.99 6 7.56 6 9.49c0 .75.24 1.51.68 2.12l9.88 9.17z"/></svg>