<svg xmlns="http://www.w3.org/2000/svg" width="32" height="32"><style>.st0{fill:#000}</style><path class="st0" d="M13 2C6.93 2 2 6.93 2 13c0 6.06 4.93 11 11 11 6.06 0 11-4.94 11-11 0-6.07-4.94-11-11-11m0 24C5.83 26 0 20.16 0 13 0 5.83 5.83 0 13 0c7.16 0 13 5.83 13 13 0 7.16-5.84 13-13 13m16 6c-.77 0-1.54-.3-2.13-.88l-5.57-5.41 1.39-1.43 5.59 5.41c.4.41 1.03.4 1.42.01.19-.18.3-.43.3-.7 0-.28-.11-.53-.3-.71l-5.42-5.6 1.43-1.39 5.42 5.58c.55.56.87 1.31.87 2.12 0 .8-.32 1.55-.88 2.12-.59.58-1.36.88-2.12.88"/><path class="st0" d="M7.34 18.65c-3.12-3.12-3.12-8.19 0-11.31l1.42 1.41c-2.34 2.34-2.34 6.15 0 8.48z"/></svg>